<svg xmlns="http://www.w3.org/2000/svg" xmlns:xlink="http://www.w3.org/1999/xlink" id="Layer_1" x="0px" y="0px" viewBox="0 0 512 512" style="enable-background:new 0 0 512 512;" xml:space="preserve"><rect x="193.64" y="20.01" style="fill:#EFEFEF;" width="275.09" height="364.419"></rect><g>	<rect x="193.63" y="85.575" style="fill:#E0E0E3;" width="275.09" height="31.629"></rect>	<path style="fill:#E0E0E3;" d="M468.734,303.428v80.997H288.1v-60.791c0-11.16,9.047-20.206,20.206-20.206H468.734z"></path></g><rect x="193.63" y="20.01" style="fill:#30D8B8;" width="275.09" height="65.567"></rect><rect x="110.874" y="90.425" style="fill:#00C6A5;" width="41.033" height="204.904"></rect><polygon style="fill:#C7C5CC;" points="151.903,295.329 131.387,347.955 110.87,295.329 "></polygon><path style="fill:#30D8B8;" d="M59.041,90.428L59.041,90.428c11.331,0,20.517,9.186,20.517,20.517v184.385H38.524V110.944  C38.524,99.613,47.71,90.428,59.041,90.428z"></path><polygon style="fill:#00C6A5;" points="79.557,295.329 59.041,347.955 38.524,295.329 "></polygon><rect x="159.619" y="384.742" style="fill:#30D8B8;" width="187.465" height="107.248"></rect><path style="fill:#00C6A5;" d="M347.089,384.742v89.067h-31.817c-14.998,0-27.172-12.173-27.172-27.172v-61.896H347.089z"></path><rect x="234.433" y="419.443" style="fill:#FFFFFF;" width="37.846" height="37.846"></rect><rect x="315.277" y="339.383" style="fill:#EFEFEF;" width="187.476" height="107.248"></rect><rect x="315.277" y="339.383" style="fill:#30D8B8;" width="61.106" height="107.248"></rect><rect x="245.029" y="20.01" style="fill:#EFEFEF;" width="65.567" height="65.567"></rect><path d="M436.348,145.34v-8.391c0-5.111-4.142-9.253-9.253-9.253s-9.253,4.142-9.253,9.253v8.391c0,5.111,4.142,9.253,9.253,9.253  S436.348,150.451,436.348,145.34z"></path><path d="M403.715,145.34v-8.391c0-5.111-4.142-9.253-9.253-9.253c-5.111,0-9.253,4.142-9.253,9.253v8.391  c0,5.111,4.142,9.253,9.253,9.253C399.573,154.593,403.715,150.451,403.715,145.34z"></path><path d="M371.082,145.34v-8.391c0-5.111-4.142-9.253-9.253-9.253s-9.253,4.142-9.253,9.253v8.391c0,5.111,4.142,9.253,9.253,9.253  S371.082,150.451,371.082,145.34z"></path><path d="M193.635,325.706c5.111,0,9.253-4.142,9.253-9.253V94.828h42.138h65.567h148.883v37.181c0,5.111,4.142,9.253,9.253,9.253  c5.111,0,9.253-4.142,9.253-9.253V20.009c0-5.111-4.142-9.253-9.253-9.253H310.593h-65.567h-51.39c-5.111,0-9.253,4.142-9.253,9.253  v296.445C184.383,321.564,188.526,325.706,193.635,325.706z M459.476,76.321h-139.63v-47.06h139.63V76.321z M301.34,29.261v47.06  h-47.061v-47.06H301.34z M235.773,29.261v47.06h-32.884v-47.06H235.773z"></path><path d="M240.836,150.397h42.568c5.111,0,9.253-4.142,9.253-9.253c0-5.111-4.142-9.253-9.253-9.253h-42.568  c-5.111,0-9.253,4.142-9.253,9.253C231.584,146.255,235.727,150.397,240.836,150.397z"></path><path d="M417.448,181.706H240.836c-5.111,0-9.253,4.142-9.253,9.253s4.143,9.253,9.253,9.253h176.612  c5.111,0,9.253-4.142,9.253-9.253S422.559,181.706,417.448,181.706z"></path><path d="M417.448,219.197H240.836c-5.111,0-9.253,4.142-9.253,9.253c0,5.111,4.143,9.253,9.253,9.253h176.612  c5.111,0,9.253-4.142,9.253-9.253C426.701,223.339,422.559,219.197,417.448,219.197z"></path><path d="M417.448,256.688H240.836c-5.111,0-9.253,4.142-9.253,9.253s4.143,9.253,9.253,9.253h176.612  c5.111,0,9.253-4.142,9.253-9.253C426.701,260.831,422.559,256.688,417.448,256.688z"></path><path d="M417.448,294.178H240.836c-5.111,0-9.253,4.142-9.253,9.253s4.143,9.253,9.253,9.253h176.612  c5.111,0,9.253-4.142,9.253-9.253S422.559,294.178,417.448,294.178z"></path><path d="M160.576,298.53c0.375-1.016,0.581-2.117,0.581-3.202V90.428c0-5.111-4.143-9.253-9.253-9.253h-41.032  c-5.111,0-9.253,4.142-9.253,9.253v94.015c0,5.111,4.143,9.253,9.253,9.253c5.111,0,9.253-4.142,9.253-9.253V99.681h22.527v186.395  h-22.527v-67.703c0-5.111-4.143-9.253-9.253-9.253c-5.111,0-9.253,4.142-9.253,9.253v76.957c0,1.134,0.222,2.304,0.632,3.361  l20.517,52.626c1.384,3.552,4.808,5.891,8.621,5.891c3.813,0,7.236-2.34,8.621-5.891l20.517-52.626  C160.544,298.638,160.556,298.583,160.576,298.53z M131.387,322.481l-6.978-17.899h13.956L131.387,322.481z"></path><path d="M88.553,297.463c0.164-0.692,0.257-1.422,0.257-2.134V110.943c0-16.414-13.354-29.769-29.769-29.769  s-29.769,13.354-29.769,29.769v4.301H9.253c-5.111,0-9.253,4.142-9.253,9.253v50.454c0,5.111,4.143,9.253,9.253,9.253  s9.253-4.142,9.253-9.253v-41.201h10.766v161.578c0,1.134,0.222,2.304,0.632,3.361l20.517,52.626  c1.384,3.552,4.808,5.891,8.621,5.891c3.814,0,7.236-2.34,8.621-5.891l20.517-52.626C88.331,298.296,88.456,297.873,88.553,297.463z   M47.778,110.943c0-6.211,5.052-11.263,11.263-11.263s11.263,5.052,11.263,11.263v175.132H47.778V110.943z M59.041,322.481  l-6.978-17.899h13.956L59.041,322.481z"></path><path d="M272.278,410.188h-37.849c-5.111,0-9.253,4.142-9.253,9.253v37.849c0,5.111,4.143,9.253,9.253,9.253h37.849  c5.111,0,9.253-4.142,9.253-9.253v-37.849C281.531,414.33,277.389,410.188,272.278,410.188z M263.025,448.038h-19.343v-19.343  h19.343V448.038z"></path><path d="M417.009,387.416h46.688c5.111,0,9.253-4.142,9.253-9.253s-4.142-9.253-9.253-9.253h-46.688  c-5.111,0-9.253,4.142-9.253,9.253S411.899,387.416,417.009,387.416z"></path><path d="M463.697,402.683h-46.688c-5.111,0-9.253,4.142-9.253,9.253c0,5.111,4.142,9.253,9.253,9.253h46.688  c5.111,0,9.253-4.142,9.253-9.253C472.951,406.826,468.808,402.683,463.697,402.683z"></path><path d="M502.747,330.132h-24.765V167.17c0-5.111-4.142-9.253-9.253-9.253s-9.253,4.142-9.253,9.253v162.962H315.276  c-5.111,0-9.253,4.142-9.253,9.253v35.79H202.889v-26.026c0-5.111-4.143-9.253-9.253-9.253c-5.111,0-9.253,4.142-9.253,9.253v26.338  H159.62c-5.111,0-9.253,4.142-9.253,9.253V491.99c0,5.111,4.143,9.253,9.253,9.253h96.382c5.111,0,9.253-4.142,9.253-9.253  c0-5.111-4.142-9.253-9.253-9.253h-87.13v-88.745h137.152v52.645c0,5.111,4.142,9.253,9.253,9.253h22.56v26.849h-42.974  c-5.111,0-9.253,4.142-9.253,9.253c0,5.111,4.142,9.253,9.253,9.253h52.226c5.111,0,9.253-4.142,9.253-9.253V455.89h146.405  c5.111,0,9.253-4.142,9.253-9.253V339.386C512,334.274,507.858,330.132,502.747,330.132z M324.529,348.639h42.596v88.745h-42.596  V348.639z M493.494,437.384H385.631v-88.745h107.863V437.384z"></path><path d="M277.809,68.194c5.111,0,9.253-4.142,9.253-9.253V48.713c0-5.111-4.142-9.253-9.253-9.253s-9.253,4.142-9.253,9.253v10.229  C268.557,64.052,272.698,68.194,277.809,68.194z"></path><g></g><g></g><g></g><g></g><g></g><g></g><g></g><g></g><g></g><g></g><g></g><g></g><g></g><g></g><g></g></svg>