<svg xmlns="http://www.w3.org/2000/svg" viewBox="0 0 64 64"><defs><style>.cls-1{fill:#00bebd;}.cls-2{fill:#00aaa8;}.cls-3{fill:#50d9d7;}.cls-4{fill:#c8c8c8;}.cls-5{fill:#fff;}.cls-6{fill:#f3f3f3;}.cls-7{fill:#d9d9d9;}.cls-8{fill:#ea9807;}.cls-9{fill:#ffac00;}</style></defs><title>Vector</title><g id="Vector"><rect class="cls-1" y="3" width="64" height="48" rx="3"></rect><polygon class="cls-2" points="39.81 61.05 23.81 60.95 24.88 50.95 38.88 51.05 39.81 61.05"></polygon><path class="cls-3" d="M46.81,62.1l-30-.2a1,1,0,0,1,0-2l30,.2A1,1,0,0,1,46.81,62.1Z"></path><path class="cls-4" d="M3,5H61a1,1,0,0,1,1,1V9a0,0,0,0,1,0,0H2A0,0,0,0,1,2,9V6A1,1,0,0,1,3,5Z"></path><rect class="cls-5" x="2" y="9" width="60" height="36"></rect><rect class="cls-6" x="2" y="9" width="10" height="26"></rect><rect class="cls-6" x="50" y="9" width="12" height="36"></rect><rect class="cls-4" x="4" y="11" width="3" height="3"></rect><rect class="cls-4" x="7" y="14" width="3" height="3"></rect><rect class="cls-7" x="7" y="11" width="3" height="3"></rect><rect class="cls-7" x="4" y="14" width="3" height="3"></rect><rect class="cls-4" x="4" y="17" width="3" height="3"></rect><rect class="cls-4" x="7" y="20" width="3" height="3"></rect><rect class="cls-7" x="7" y="17" width="3" height="3"></rect><rect class="cls-7" x="4" y="20" width="3" height="3"></rect><rect class="cls-8" x="6" y="27" width="4" height="4"></rect><rect class="cls-9" x="4" y="25" width="4" height="4"></rect><rect class="cls-7" x="50" y="30" width="12" height="4"></rect><rect class="cls-6" x="50" y="32" width="5" height="2"></rect><rect class="cls-7" x="50" y="9" width="12" height="4"></rect><rect class="cls-6" x="50" y="11" width="5" height="2"></rect><rect class="cls-8" x="54" y="17" width="4" height="4"></rect><rect class="cls-9" x="52" y="15" width="4" height="4"></rect><rect class="cls-3" x="52" y="23" width="8" height="2"></rect><rect class="cls-3" x="52" y="36" width="8" height="2"></rect><rect class="cls-3" x="52" y="40" width="8" height="2"></rect><rect class="cls-6" x="14" y="11" width="10" height="2"></rect><rect class="cls-6" x="14" y="15" width="6" height="2"></rect><polygon class="cls-9" points="45 24 32 41 19 24 23 18 41 18 45 24"></polygon><polygon class="cls-8" points="45 24 19 24 23 18 41 18 45 24"></polygon><polygon class="cls-9" points="32 18 26 24 38 24 32 18"></polygon><polygon class="cls-8" points="26 24 32 41 38 24 26 24"></polygon><rect class="cls-3" x="18" y="23" width="2" height="2"></rect><rect class="cls-3" x="44" y="23" width="2" height="2"></rect><rect class="cls-3" x="31" y="40" width="2" height="2"></rect><rect class="cls-3" x="22" y="17" width="2" height="2"></rect><rect class="cls-3" x="40" y="17" width="2" height="2"></rect><polygon class="cls-2" points="41.05 35 46 37.12 43.88 37.83 43.17 39.95 41.05 35"></polygon><rect class="cls-9" x="15" y="35" width="8" height="6"></rect></g></svg>